<svg xmlns="http://www.w3.org/2000/svg" version="1.1" xmlns:xlink="http://www.w3.org/1999/xlink" xmlns:svgjs="http://svgjs.com/svgjs" width="128" height="128"><svg xmlns="http://www.w3.org/2000/svg" viewBox="0 0 128 128"><defs><style>.cls-1{fill:#422c5a;}.cls-2{fill:#e7e7e7;}</style></defs><g id="SvgjsG1001" data-name="Layer 2"><rect class="cls-1" width="128" height="128" rx="10"></rect></g><g id="SvgjsG1000" data-name="Layer 1"><path class="cls-2" d="M26.6,14.06h33a4.6,4.6,0,0,1,3.12,2.75c2.16,6.91,4,13.91,6.85,20.79V24.47a2.72,2.72,0,0,0-1-2c-3.57-1.65-1.69-4.69-1.53-7C67,14.88,69.8,14,71.3,14c8.88.06,17.82.06,26.73.06,2.4,0,3.37.72,3.37,3.13q0,47.64-.15,95.31a10.08,10.08,0,0,1-.35,1.44H70a3.47,3.47,0,0,1-4-2.77c0-.12,0-.24,0-.36C64.58,104.56,63,98.5,61.45,92.37h-1l2.13,21.26H26.6Z"></path></g></svg><style>@media (prefers-color-scheme: light) { :root { filter: none; } }
</style></svg>