<svg id="Layer_1" data-name="Layer 1" xmlns="http://www.w3.org/2000/svg" xmlns:xlink="http://www.w3.org/1999/xlink" viewBox="0 0 128 128"><defs><style>.cls-1{fill:#422c5a;}.cls-2{fill:url(#linear-gradient);}</style><linearGradient id="linear-gradient" x1="64.03" y1="114.04" x2="64.03" y2="14.05" gradientUnits="userSpaceOnUse"><stop offset="0" stop-color="#fff"/><stop offset="0.79" stop-color="#949494"/><stop offset="1" stop-color="#777"/></linearGradient></defs><g id="Layer_2" data-name="Layer 2"><rect class="cls-1" width="128" height="128" rx="10"/></g><g id="Layer_1-2" data-name="Layer 1"><path class="cls-2" d="M26.63,14.11h33a4.58,4.58,0,0,1,3.12,2.75c2.16,6.91,4,13.91,6.85,20.79V24.52a2.69,2.69,0,0,0-1-2c-3.57-1.65-1.69-4.69-1.53-7,0-.59,2.76-1.47,4.26-1.47,8.88.06,17.82.06,26.73.06,2.4,0,3.37.72,3.37,3.13q0,47.64-.15,95.31a10.41,10.41,0,0,1-.35,1.44H70a3.47,3.47,0,0,1-4-2.77v-.36c-1.42-6.25-3-12.31-4.55-18.44h-1l2.13,21.26h-36Z"/></g></svg>