<?xml version="1.0" encoding="utf-8"?>
<!-- Generator: Adobe Illustrator 26.0.0, SVG Export Plug-In . SVG Version: 6.00 Build 0)  -->
<svg version="1.1" id="Layer_1" xmlns="http://www.w3.org/2000/svg" xmlns:xlink="http://www.w3.org/1999/xlink" x="0px" y="0px"
	 viewBox="0 0 414.9 200" style="enable-background:new 0 0 414.9 200;" xml:space="preserve">
<style type="text/css">
	.st0{fill:#0D0D0D;}
</style>
<path class="st0" d="M189.1,0c2.2,1.7-0.1,2.6-0.8,3.5c-7.7,9.2-15.4,18.2-23.2,27.3L78.6,132.4c-0.9,1-1.8,2.1-2.6,3.2l1,1.1
	l29.5-19.9c0.8,1,1.5,1.8,2.1,2.6c18.5,25.6,37.1,51.2,55.6,76.9c0.9,1.2,2,2.2,0.7,3.8h-16.1c-0.7-0.4-1.5-0.7-2.3-0.9
	c-4.8-0.1-9.5-0.1-14.3,0c-0.8,0.2-1.5,0.5-2.2,0.9h-4.5c-1-0.7-2.1-1.2-3.2-1.5c-9.4-1.4-18-5.9-24.5-12.8c-3.9-4.1-7.6-8.5-11-13
	c-6.7-8.7-13.2-17.5-20-26.5c-1.3,1.4-2.3,2.5-3.2,3.6C51.3,164,39,178.3,26.8,192.5c-1.5,1.8-2.9,3.7-4.4,5.6l-1.6,0.6v-74.5
	l44-34.5l-0.9-1.4l-28.5,15.2c-11.9-16.2-23.6-32-35.2-47.8C-0.1,55.3,0.1,54.5,0,54c1.8,0.1,3.6,0.2,5.3,0.2h55.3l18.2,24.7
	c1.3-0.9,2.2-1.5,3-2.1L189.1,0z"/>
<path class="st0" d="M130,200c0.7-0.4,1.4-0.7,2.2-0.9c4.8-0.1,9.5-0.1,14.3,0c0.8,0.2,1.6,0.5,2.3,0.9H130z"/>
<path class="st0" d="M238.2,144.5v-54c1-0.2,2-0.3,3-0.3c9.5,0,19.1,0,28.6,0.2c20.3,0.4,29,16.1,25.6,34.2
	c-2.2,11.5-10.8,19.2-22.8,19.8C261.3,144.9,250,144.5,238.2,144.5z M252.5,100.9v32.9c6-0.4,11.8-0.2,17.5-1.2
	c7.7-1.3,11.7-7,11.8-15.1s-3.7-13.8-11.5-15.3C264.6,101.1,258.7,101.3,252.5,100.9z"/>
<path class="st0" d="M209,144.7h-17.5c-4-5.6-8.1-11.2-12.6-17.3l-13.5,17.3h-17l22.3-27.6c-7-8.8-13.9-17.5-21.2-26.7h17.1
	l12.4,16.8l12.4-16.9h16.7L186.9,117L209,144.7z"/>
<path class="st0" d="M225.5,144.6h-13.1V90.4h13.1V144.6z"/>
<path class="st0" d="M414.1,143.5c-7.2-8.8-14.2-17.6-21.4-26.5l21.5-27h-16.7L385,106.9l-12.4-16.8h-17.1l21.2,26.8
	c-6.3,7.7-12.3,15.2-18.7,23.1c-7.8-17.1-15.3-33.7-22.7-49.9h-13.1l-25.6,54.4h14.7l4.7-11.1h24c1.7,3.9,3.4,7.6,5,11.1h26.3
	l13.4-17.2l12.5,17.2l17.7,0.8v-1.8C414.6,143.5,414.2,143.6,414.1,143.5z M320.9,121.9c2.2-5.5,4.3-10.5,6.9-16.6l7.2,16.6H320.9z"
	/>
</svg>
